<svg width="128" height="42" viewBox="0 0 128 42" fill="none" xmlns="http://www.w3.org/2000/svg">
<g clip-path="url(#clip0_70_2678)">
<path d="M122.114 15.2722H127.987C127.244 9.55289 123.07 6.54663 117.267 6.54663C111.395 6.54663 107.468 9.66293 107.468 15.0156C107.468 21.1015 112.527 22.4579 115.215 23.008C118.683 23.7045 122.079 23.7779 122.079 26.8574C122.079 28.9471 120.381 29.9736 117.975 29.9736C115.003 29.9736 113.022 28.4339 112.527 25.6477H106.725C107.078 31.6602 111.289 34.8864 117.48 34.8864C123.211 34.8864 127.916 32.1735 127.916 26.3075C127.916 20.0016 122.504 18.8651 118.718 18.2785C116.135 17.8753 113.305 17.5086 113.305 14.6856C113.305 12.7059 114.756 11.4961 117.197 11.4961C120.027 11.4961 121.725 13.1459 122.114 15.2722Z" fill="#403F41"/>
<path d="M103.504 7.46326H97.9492V34.0431H103.504V7.46326Z" fill="#403F41"/>
<path d="M81.1794 24.7676H88.4321C87.2999 27.6274 84.7526 28.9836 81.8162 28.9836C76.651 28.9836 74.2453 24.8409 74.2453 20.7348C74.2453 16.5919 76.5094 12.3759 81.7809 12.3759C85.0004 12.3759 87.4059 13.9157 88.3259 16.6653L94.3048 16.6653C93.279 10.4696 88.0429 6.91333 81.8517 6.91333C74.2099 6.91333 68.4785 12.3025 68.4785 20.8082C68.4785 29.4237 74.7051 34.5197 81.8162 34.5197C88.8212 34.5197 94.3048 29.7904 94.3048 22.3847V20.2215H81.1794V24.7676Z" fill="#403F41"/>
<path d="M55.7786 6.91333C49.4104 6.91333 44.705 11.056 44.7404 17.9485H50.4718C50.401 14.9422 52.2406 12.1926 55.4955 12.1926C58.3259 12.1926 59.9886 14.2457 59.9886 16.5919C59.9886 18.9383 58.3258 20.2582 55.2478 21.6881C51.0378 23.6312 48.0307 24.8776 44.9527 25.9776V34.0431H66.3922V28.6171H51.6737C51.6737 28.6171 51.7227 28.6012 51.7469 28.5937C54.2503 27.8076 56.131 26.9536 58.3613 25.9409C63.1373 23.7412 65.8615 20.9914 65.8615 16.2988C65.8615 10.5427 61.7576 6.91333 55.7786 6.91333Z" fill="#403F41"/>
<path d="M29.669 24.6944C22.4517 24.7311 21.2842 29.2405 20.8951 33.0533L20.7183 34.7397H19.2676L19.0908 33.0533C18.7017 29.2405 17.4988 24.7311 10.5291 24.6944C9.36167 22.2013 8.86636 20.1849 8.86636 17.9119C8.86636 12.2294 13.3595 6.91321 20.0106 6.91321C26.6618 6.91321 31.0841 12.1925 31.0841 17.9487C31.0841 20.1849 30.8719 22.2013 29.669 24.6944ZM19.9399 0.020752C8.9726 0.020752 -0.0136719 9.33298 -0.0136719 20.7347C-0.0136719 32.1734 8.9726 41.4855 19.9399 41.4855C31.0133 41.4855 39.9642 32.1734 39.9642 20.7347C39.9642 9.33301 31.0133 0.020752 19.9399 0.020752Z" fill="#29B24A"/>
</g>
<defs>
<clipPath id="clip0_70_2678">
<rect width="128" height="41.4648" fill="white"/>
</clipPath>
</defs>
</svg>
