<svg width="36" height="36" viewBox="0 0 36 36" fill="none" xmlns="http://www.w3.org/2000/svg">
<rect width="36" height="36" rx="10" fill="#CAC6BF"/>
<path d="M22.6895 12.845C22.6895 12.5339 22.8131 12.2355 23.0331 12.0155C23.2531 11.7955 23.5515 11.6719 23.8626 11.6719C24.1738 11.6719 24.4721 11.7955 24.6922 12.0155C24.9122 12.2355 25.0358 12.5339 25.0358 12.845C25.0358 13.1562 24.9122 13.4546 24.6922 13.6746C24.4721 13.8946 24.1738 14.0182 23.8626 14.0182C23.5515 14.0182 23.2531 13.8946 23.0331 13.6746C22.8131 13.4546 22.6895 13.1562 22.6895 12.845Z" fill="#494949"/>
<path fill-rule="evenodd" clip-rule="evenodd" d="M17.9963 13.1377C16.5184 13.1377 15.101 13.7248 14.056 14.7698C13.0109 15.8149 12.4238 17.2323 12.4238 18.7102C12.4238 20.1881 13.0109 21.6055 14.056 22.6505C15.101 23.6956 16.5184 24.2827 17.9963 24.2827C19.4742 24.2827 20.8916 23.6956 21.9367 22.6505C22.9817 21.6055 23.5688 20.1881 23.5688 18.7102C23.5688 17.2323 22.9817 15.8149 21.9367 14.7698C20.8916 13.7248 19.4742 13.1377 17.9963 13.1377ZM14.1836 18.7102C14.1836 17.699 14.5853 16.7292 15.3003 16.0142C16.0153 15.2991 16.9851 14.8974 17.9963 14.8974C19.0075 14.8974 19.9773 15.2991 20.6924 16.0142C21.4074 16.7292 21.8091 17.699 21.8091 18.7102C21.8091 19.7214 21.4074 20.6912 20.6924 21.4062C19.9773 22.1213 19.0075 22.523 17.9963 22.523C16.9851 22.523 16.0153 22.1213 15.3003 21.4062C14.5853 20.6912 14.1836 19.7214 14.1836 18.7102Z" fill="#494949"/>
<path fill-rule="evenodd" clip-rule="evenodd" d="M24.1672 7.9561C20.0675 7.50161 15.9301 7.50161 11.8303 7.9561C9.46991 8.22006 7.56353 10.0795 7.28667 12.4516C6.80028 16.61 6.80028 20.8109 7.28667 24.9692C7.56353 27.3413 9.46874 29.2008 11.8303 29.4648C15.9301 29.9188 20.0675 29.9188 24.1672 29.4648C26.5276 29.2008 28.434 27.3413 28.7109 24.9692C29.1973 20.8109 29.1973 16.61 28.7109 12.4516C28.434 10.0795 26.5288 8.22006 24.1672 7.9561ZM12.0251 9.7041C15.9954 9.26402 20.0022 9.26402 23.9725 9.7041C25.5328 9.88008 26.7822 11.1107 26.964 12.6569C27.4344 16.6789 27.4344 20.742 26.964 24.7639C26.87 25.5207 26.5236 26.2236 25.9807 26.7592C25.4379 27.2947 24.7304 27.6317 23.9725 27.7156C20.0022 28.1557 15.9954 28.1557 12.0251 27.7156C11.2671 27.6317 10.5596 27.2947 10.0168 26.7592C9.47397 26.2236 9.12755 25.5207 9.0335 24.7639C8.56312 20.742 8.56312 16.6789 9.0335 12.6569C9.12755 11.9002 9.47397 11.1973 10.0168 10.6617C10.5596 10.1261 11.2671 9.78799 12.0251 9.7041Z" fill="#494949"/>
</svg>
