<svg width="26" height="26" viewBox="0 0 26 26" fill="none" xmlns="http://www.w3.org/2000/svg">
<g id="logos:telegram" clip-path="url(#clip0_13_3297)">
<path id="Vector" d="M13 0C9.55297 0 6.24406 1.37048 3.80859 3.80758C1.37063 6.24565 0.00069763 9.55212 0 13C0 16.4464 1.37109 19.7553 3.80859 22.1924C6.24406 24.6295 9.55297 26 13 26C16.447 26 19.7559 24.6295 22.1914 22.1924C24.6289 19.7553 26 16.4464 26 13C26 9.55358 24.6289 6.24467 22.1914 3.80758C19.7559 1.37048 16.447 0 13 0Z" fill="url(#paint0_linear_13_3297)"/>
<path id="Vector_2" d="M5.88442 12.8627C9.67473 11.2117 12.2016 10.1232 13.465 9.59726C17.0766 8.09556 17.8261 7.83475 18.3157 7.82591C18.4233 7.82419 18.663 7.8508 18.8194 7.97724C18.9494 8.08388 18.986 8.2281 19.0043 8.32936C19.0205 8.43051 19.0429 8.66106 19.0246 8.84103C18.8296 10.8967 17.9825 15.885 17.5519 18.1874C17.3711 19.1616 17.0116 19.4882 16.6643 19.5201C15.9086 19.5896 15.3358 19.0212 14.6046 18.5421C13.461 17.7919 12.815 17.3252 11.7039 16.5933C10.4202 15.7475 11.253 15.2825 11.9843 14.5228C12.1752 14.324 15.5024 11.2984 15.5654 11.024C15.5735 10.9897 15.5816 10.8617 15.5044 10.7943C15.4293 10.7266 15.3175 10.7498 15.2363 10.7681C15.1205 10.7941 13.2944 12.0023 9.75192 14.3924C9.23395 14.7487 8.76473 14.9224 8.34223 14.9132C7.8791 14.9033 6.98535 14.6508 6.32113 14.4351C5.50863 14.1704 4.86067 14.0305 4.91754 13.581C4.94598 13.347 5.26895 13.1075 5.88442 12.8627Z" fill="white"/>
</g>
<defs>
<linearGradient id="paint0_linear_13_3297" x1="1300" y1="0" x2="1300" y2="2600" gradientUnits="userSpaceOnUse">
<stop stop-color="#2AABEE"/>
<stop offset="1" stop-color="#229ED9"/>
</linearGradient>
<clipPath id="clip0_13_3297">
<rect width="26" height="26" fill="white"/>
</clipPath>
</defs>
</svg>
