<svg width="20" height="20" viewBox="0 0 20 20" fill="none" xmlns="http://www.w3.org/2000/svg">
<g id="Help-Chat-2--Streamline-Sharp.svg" clip-path="url(#clip0_70_1277)">
<g id="Solid/01-Interface-Essential/06-Help/help-chat-2--bubble-help-mark-message-query-question-speech-circle">
<path id="Subtract" fill-rule="evenodd" clip-rule="evenodd" d="M2.92893 2.92893C4.8043 1.05357 7.34783 0 10 0C12.6522 0 15.1957 1.05357 17.0711 2.92893C18.9464 4.8043 20 7.34783 20 10C20 12.6522 18.9464 15.1957 17.0711 17.0711C15.1957 18.9464 12.6522 20 10 20C8.46192 20 6.96039 19.6457 5.60459 18.9823L0.153875 19.8411L1.03304 14.4265C0.359787 13.0626 0 11.5498 0 10C0 7.34783 1.05357 4.8043 2.92893 2.92893ZM10 5.83333C8.84942 5.83333 7.91667 6.76607 7.91667 7.91667V8.33333H6.25V7.91667C6.25 5.8456 7.92893 4.16667 10 4.16667C12.0711 4.16667 13.75 5.8456 13.75 7.91667V8.71658L13.459 8.96608L10.8333 11.2166V12.9167H9.16667V10.4501L9.45767 10.2006L12.0833 7.95005V7.91667C12.0833 6.76607 11.1506 5.83333 10 5.83333ZM9.16667 15.8333V14.1667H10.8333V15.8333H9.16667Z" fill="black"/>
</g>
</g>
<defs>
<clipPath id="clip0_70_1277">
<rect width="20" height="20" fill="white"/>
</clipPath>
</defs>
</svg>
