<svg width="83" height="32" viewBox="0 0 83 32" fill="none" xmlns="http://www.w3.org/2000/svg">
<g id="Group 1">
<g id="&#208;&#159;&#209;&#128;&#208;&#190;&#209;&#132;&#208;&#184;">
<path d="M13.4377 19.185V0H15.5953V19.185H13.4377ZM0.0839844 19.185V0H2.24157V19.185H0.0839844ZM0.812899 1.72024V0H14.8955V1.72024H0.812899Z" fill="black"/>
<path d="M21.4266 19.185V5.59806H25.6543C26.8594 5.59806 27.8896 5.76328 28.7449 6.09372C29.6196 6.42417 30.2805 6.91011 30.7275 7.55155C31.1746 8.193 31.3981 8.98023 31.3981 9.91324C31.3981 10.9046 31.1454 11.7793 30.6401 12.5373C30.1541 13.276 29.4446 13.8494 28.5116 14.2576C27.5786 14.6463 26.461 14.8407 25.1586 14.8407H22.4179V13.2079H25.4794C26.7428 13.2079 27.7244 12.9552 28.4242 12.4499C29.1434 11.925 29.503 11.1767 29.503 10.2048C29.503 9.23291 29.1336 8.47484 28.395 7.93059C27.6564 7.38633 26.6359 7.1142 25.3336 7.1142H23.3509V19.185H21.4266Z" fill="black"/>
<path d="M41.1813 19.36C39.8401 19.36 38.635 19.0587 37.5659 18.4561C36.4968 17.8535 35.661 17.0372 35.0584 16.007C34.4559 14.9768 34.1546 13.8202 34.1546 12.5373C34.1546 11.1961 34.4656 9.99099 35.0876 8.92191C35.7096 7.85284 36.5746 7.0073 37.6825 6.38529C38.7905 5.74385 40.0442 5.42312 41.4437 5.42312C42.8044 5.42312 44.0192 5.72441 45.0883 6.32698C46.1574 6.92955 46.9932 7.75565 47.5957 8.80529C48.2178 9.83548 48.5288 11.0115 48.5288 12.3332C48.5288 13.6939 48.1983 14.9087 47.5374 15.9778C46.896 17.0274 46.0213 17.8535 44.9133 18.4561C43.8054 19.0587 42.5614 19.36 41.1813 19.36ZM41.3854 17.8438C42.3573 17.8438 43.2125 17.6203 43.9512 17.1732C44.7093 16.7262 45.3021 16.1041 45.7297 15.3072C46.1574 14.5103 46.3712 13.5772 46.3712 12.5082C46.3712 11.4197 46.1476 10.4575 45.7006 9.62167C45.2729 8.76641 44.6704 8.10553 43.8929 7.63902C43.1348 7.17252 42.2601 6.93927 41.2688 6.93927C40.3163 6.93927 39.4611 7.1628 38.703 7.60987C37.9644 8.05693 37.3715 8.68866 36.9244 9.50504C36.4968 10.3214 36.283 11.2642 36.283 12.3332C36.283 13.4217 36.4968 14.3839 36.9244 15.2197C37.3715 16.0361 37.9741 16.6776 38.7322 17.1441C39.5097 17.6106 40.3941 17.8438 41.3854 17.8438Z" fill="black"/>
<path d="M58.6395 18.0771C57.1622 18.0771 55.8793 17.8438 54.7908 17.3773C53.7217 16.9108 52.8956 16.2694 52.3125 15.453C51.7294 14.6172 51.4378 13.6356 51.4378 12.5082C51.4378 11.303 51.7585 10.2728 52.4 9.41757C53.0414 8.54288 53.9356 7.87227 55.0824 7.40577C56.2292 6.91983 57.551 6.67686 59.0477 6.67686C60.5444 6.67686 61.8273 6.91011 62.8963 7.37661C63.9849 7.82368 64.8207 8.46513 65.4038 9.30095C65.9869 10.1368 66.2785 11.1184 66.2785 12.2458C66.2785 13.412 65.9578 14.4422 65.3163 15.3364C64.6749 16.2111 63.7808 16.8914 62.6339 17.3773C61.4871 17.8438 60.1556 18.0771 58.6395 18.0771ZM59.0477 16.7942C60.1945 16.7942 61.1567 16.6192 61.9342 16.2694C62.7311 15.9195 63.3337 15.4335 63.7419 14.8115C64.1695 14.1701 64.3833 13.412 64.3833 12.5373C64.3833 11.5849 64.1501 10.7685 63.6836 10.0882C63.2171 9.40786 62.5562 8.89276 61.7009 8.54288C60.8651 8.17356 59.8543 7.9889 58.6686 7.9889C57.5413 7.9889 56.5791 8.16384 55.7821 8.51372C54.9852 8.8636 54.3729 9.35926 53.9453 10.0007C53.5371 10.6227 53.333 11.3808 53.333 12.2749C53.333 13.2079 53.5565 14.0146 54.0036 14.6949C54.4701 15.3558 55.131 15.8709 55.9862 16.2402C56.8609 16.6095 57.8814 16.7942 59.0477 16.7942ZM58.0272 19.4766V5.3065H59.7766V19.4766H58.0272Z" fill="black"/>
<path d="M71.4495 19.185V18.1937L80.8087 5.59806H82.0042V6.61854L72.6449 19.185H71.4495ZM70.429 19.185V5.59806H72.3242L72.2367 19.185H70.429ZM81.042 19.185L81.1295 5.59806H82.9372V19.185H81.042Z" fill="black"/>
</g>
<g id="&#209;&#129;&#209;&#130;&#209;&#128;&#208;&#184;&#208;&#182;&#208;&#186;&#208;&#176;">
<path d="M4.10992 31.9994C3.29889 31.9994 2.58103 31.8296 1.95632 31.4898C1.34257 31.1501 0.860343 30.6843 0.50963 30.0924C0.169877 29.5006 0 28.8485 0 28.1361C0 27.3799 0.180836 26.7004 0.542509 26.0976C0.904182 25.4839 1.39737 25.0016 2.02208 24.6509C2.64679 24.2892 3.35369 24.1084 4.1428 24.1084C4.65791 24.1084 5.14562 24.1906 5.60593 24.355C6.06624 24.5084 6.47723 24.7331 6.8389 25.029L5.98404 25.9332C5.73197 25.6592 5.43605 25.451 5.0963 25.3085C4.75655 25.166 4.40035 25.0948 4.02772 25.0948C3.52357 25.0948 3.07422 25.2153 2.67967 25.4565C2.28512 25.6976 1.97276 26.0373 1.74261 26.4757C1.51245 26.9141 1.39737 27.4292 1.39737 28.021C1.39737 28.6019 1.51245 29.117 1.74261 29.5664C1.97276 30.0157 2.30155 30.3664 2.72899 30.6185C3.16738 30.8706 3.68249 30.9966 4.27432 30.9966C4.66887 30.9966 5.03054 30.9363 5.35933 30.8158C5.68813 30.6952 5.9676 30.5199 6.19776 30.2897L6.8389 31.1446C6.47723 31.4186 6.06624 31.6323 5.60593 31.7857C5.14562 31.9282 4.64695 31.9994 4.10992 31.9994Z" fill="#ED4B58"/>
<path d="M14.1232 31.9008V24.207H15.4384V31.9008H14.1232ZM11.197 25.2592V24.207H18.3647V25.2592H11.197Z" fill="#ED4B58"/>
<path d="M23.6808 31.9008V24.207H26.1632C26.8537 24.207 27.4455 24.3057 27.9387 24.503C28.4319 24.6893 28.8045 24.9633 29.0566 25.3249C29.3196 25.6866 29.4512 26.1414 29.4512 26.6894C29.4512 27.2593 29.3032 27.758 29.0073 28.1854C28.7223 28.6129 28.3059 28.9471 27.7579 29.1883C27.2208 29.4184 26.5742 29.5335 25.818 29.5335H24.3055V28.4814H26.0317C26.7222 28.4814 27.2537 28.3444 27.6264 28.0704C28.01 27.7964 28.2017 27.3963 28.2017 26.8703C28.2017 26.3552 27.999 25.9496 27.5935 25.6537C27.1989 25.3578 26.6509 25.2099 25.9495 25.2099H24.9303V31.9008H23.6808Z" fill="#ED4B58"/>
<path d="M35.7216 31.9008V31.2597L40.8508 24.207H41.607V24.8811L36.4943 31.9008H35.7216ZM35.064 31.9008V24.207H36.297L36.2312 31.9008H35.064ZM40.9987 31.9008L41.0481 24.207H42.2153V31.9008H40.9987Z" fill="#ED4B58"/>
<path d="M56.9334 31.9008L53.4153 28.021L56.8348 24.207H58.4459L54.4346 28.3663V27.5114L58.5609 31.9008H56.9334ZM47.2669 31.9008L51.4097 27.5114V28.3663L47.382 24.207H48.9931L52.4289 28.021L48.9109 31.9008H47.2669ZM52.3139 31.9008V24.207H53.514V31.9008H52.3139Z" fill="#ED4B58"/>
<path d="M68.8707 31.9008L64.8101 28.021L68.7885 24.207H70.5311L65.7307 28.3663L65.8293 27.5114L70.6462 31.9008H68.8707ZM63.61 31.9008V24.207H64.9252V31.9008H63.61Z" fill="#ED4B58"/>
<path d="M74.6642 31.9008L77.87 24.207H79.3824L82.6046 31.9008H81.2566L78.4125 24.766H78.7742L76.0287 31.9008H74.6642ZM76.3082 29.3527L76.6206 28.3992H80.3688L80.8291 29.3527H76.3082Z" fill="#ED4B58"/>
</g>
</g>
</svg>
