<svg width="124" height="124" viewBox="0 0 124 124" fill="none" xmlns="http://www.w3.org/2000/svg">
<path d="M114.038 61.7259L116.856 62.0752L116.806 62.483C116.778 62.7069 116.842 62.9097 116.998 63.0914C117.153 63.2811 117.416 63.4557 117.786 63.6152C118.155 63.7827 118.647 63.9371 119.263 64.0784C119.885 64.2286 120.651 64.3762 121.558 64.5212L123.949 64.8785L123.27 70.3595L115.942 69.4512L115.808 70.5306L112.99 70.1813L113.137 68.9939L114.768 69.1961L115.522 63.1154L113.891 62.9132L114.038 61.7259ZM116.595 64.1861L116.11 68.0959L122.251 68.857L122.607 65.9786L121.221 65.7702C120.304 65.6322 119.531 65.4876 118.9 65.3364C118.277 65.1862 117.778 65.0188 117.403 64.8343C117.028 64.6498 116.759 64.4337 116.595 64.1861Z" fill="#FCBCAE"/>
<path d="M112.794 81.6862L111.671 81.2743L113.697 75.7485L121.753 78.7025L119.764 84.1261L118.641 83.7142L120.164 79.5614L117.872 78.721L116.553 82.3178L115.498 81.9309L116.817 78.3341L114.355 77.4312L112.794 81.6862Z" fill="#FCBCAE"/>
<path d="M106.859 90.7282L113.06 94.7377L114.615 92.3325L113.302 91.4257C112.36 90.7595 111.609 90.1633 111.047 89.6371C110.493 89.1152 110.102 88.6279 109.877 88.1751C109.658 87.7268 109.576 87.2899 109.631 86.8645C109.692 86.4435 109.869 86.0064 110.162 85.5531L111.157 86.1962C110.995 86.4465 110.91 86.7036 110.903 86.9674C110.902 87.2356 111.012 87.5324 111.234 87.8578C111.451 88.19 111.809 88.5705 112.309 88.9992C112.811 89.4392 113.483 89.9504 114.325 90.5331L116.309 91.9166L113.323 96.5341L106.117 91.8749L106.859 90.7282Z" fill="#FCBCAE"/>
<path d="M107.108 104.409L106.189 105.301L97.8177 101.47L98.8407 100.477L101.116 101.518L103.491 99.2111L102.508 96.9149L103.539 95.9129L107.108 104.409ZM102.006 102.053L105.613 103.789L104.017 100.099L102.006 102.053Z" fill="#FCBCAE"/>
<path d="M89.9602 108.768L89.3253 107.754L94.314 104.631L98.8669 111.904L93.9704 114.969L93.3356 113.955L97.0848 111.608L95.7894 109.539L92.5422 111.572L91.9458 110.619L95.1931 108.586L93.8015 106.364L89.9602 108.768Z" fill="#FCBCAE"/>
<path d="M78.2554 112.757L80.1869 118.559L81.1176 113.358L81.8744 113.106L85.7481 116.708L83.8166 110.906L85.1009 110.478L87.8111 118.619L86.4351 119.077L82.0838 114.998L81.0458 120.871L79.6698 121.329L76.9596 113.188L78.2554 112.757Z" fill="#FCBCAE"/>
<path d="M58.7337 115.181L58.2782 122.551L61.1369 122.728L61.2836 121.138C61.4029 119.991 61.5543 119.044 61.7377 118.297C61.9206 117.557 62.1542 116.978 62.4384 116.56C62.722 116.15 63.0626 115.864 63.46 115.703C63.8569 115.55 64.3248 115.49 64.8636 115.523L64.7905 116.706C64.493 116.687 64.2274 116.739 63.9938 116.862C63.7597 116.993 63.555 117.235 63.3799 117.587C63.1967 117.939 63.0407 118.438 62.912 119.084C62.7747 119.737 62.6585 120.574 62.5632 121.593L62.3296 124L56.8413 123.661L57.3707 115.097L58.7337 115.181Z" fill="#FCBCAE"/>
<path d="M45.5324 112.627C46.211 112.859 46.7639 113.21 47.1912 113.679C47.6158 114.156 47.901 114.717 48.0467 115.363C48.1822 116.013 48.1568 116.711 47.9706 117.456L49.3431 117.925L50.5453 114.402L51.8263 114.839L49.0549 122.96L47.7739 122.523L48.9566 119.057L47.5727 118.585C47.2517 119.301 46.8349 119.861 46.3224 120.265C45.8074 120.677 45.2387 120.934 44.6162 121.036C43.9862 121.136 43.3509 121.077 42.7104 120.859C41.9556 120.601 41.3597 120.202 40.9228 119.661C40.4782 119.118 40.205 118.484 40.1032 117.76C40.0014 117.035 40.0897 116.265 40.3681 115.449C40.6674 114.572 41.085 113.885 41.6211 113.387C42.1572 112.889 42.762 112.576 43.4355 112.448C44.109 112.32 44.808 112.38 45.5324 112.627ZM45.1267 113.779C44.6082 113.602 44.1268 113.578 43.6826 113.707C43.2383 113.837 42.8441 114.094 42.5 114.478C42.1482 114.861 41.8747 115.338 41.6795 115.91C41.4713 116.52 41.396 117.077 41.4535 117.582C41.5085 118.094 41.6786 118.531 41.964 118.893C42.2391 119.259 42.6244 119.527 43.12 119.696C43.6233 119.868 44.097 119.889 44.5413 119.759C44.9829 119.638 45.3758 119.385 45.72 119C46.0539 118.62 46.3198 118.14 46.5176 117.561C46.7231 116.958 46.8074 116.4 46.7703 115.885C46.723 115.375 46.5618 114.937 46.2867 114.57C46.0014 114.209 45.6147 113.945 45.1267 113.779Z" fill="#FCBCAE"/>
<path d="M38.3951 108.411L36.7923 110.755L36.4531 110.523C36.2669 110.396 36.0572 110.36 35.8242 110.415C35.5845 110.466 35.3089 110.619 34.9976 110.875C34.6796 111.126 34.3166 111.493 33.9088 111.975C33.4897 112.46 33.0077 113.072 32.4627 113.812L31.0488 115.773L26.4894 112.656L30.6566 106.561L29.7587 105.947L31.3615 103.602L32.3492 104.277L31.4216 105.634L36.4798 109.092L37.4074 107.735L38.3951 108.411ZM35.0364 109.555L31.784 107.331L28.292 112.439L30.6864 114.076L31.5075 112.939C32.0504 112.188 32.5336 111.567 32.9572 111.076C33.3763 110.591 33.7537 110.225 34.0896 109.976C34.4254 109.727 34.7411 109.587 35.0364 109.555Z" fill="#FCBCAE"/>
<path d="M21.2045 98.0975L22.0866 97.2892L26.0629 101.628L19.7368 107.425L15.834 103.166L16.7161 102.358L19.7045 105.619L21.5043 103.97L18.916 101.145L19.7446 100.386L22.3329 103.211L24.2663 101.439L21.2045 98.0975Z" fill="#FCBCAE"/>
<path d="M18.6702 93.5048L11.2347 97.7872L10.5592 96.6143L16.34 93.2849L8.27326 92.6452L7.63996 91.5456L15.0755 87.2632L15.751 88.4361L10.0644 91.7112L18.0128 92.3633L18.6702 93.5048ZM8.93466 94.9559C9.15179 95.3329 9.27943 95.6917 9.31756 96.0324C9.3487 96.377 9.29976 96.6795 9.17073 96.9398C9.03472 97.204 8.83755 97.4106 8.57923 97.5593L8.09068 96.7111C8.27918 96.6025 8.41003 96.4342 8.4832 96.2061C8.55236 95.971 8.48641 95.6789 8.28536 95.3298C8.08834 94.9877 7.87778 94.7836 7.65371 94.7174C7.42963 94.6512 7.20938 94.6804 6.99295 94.8051L6.5044 93.9568C6.76272 93.808 7.04031 93.7411 7.33716 93.7561C7.62703 93.7751 7.91321 93.8846 8.1957 94.0845C8.46719 94.2814 8.71351 94.5719 8.93466 94.9559Z" fill="#FCBCAE"/>
<path d="M10.3127 75.9426L1.84408 77.3239L1.62618 75.988L5.16868 75.4102L5.0072 74.4202L1.03086 72.3382L0.781837 70.8115L5.39271 73.2553L9.21347 69.2035L9.48 70.8376L6.23575 74.2198L6.39722 75.2098L10.0948 74.6067L10.3127 75.9426Z" fill="#FCBCAE"/>
<path d="M8.56799 64.0603L0 63.597L0.194456 60.0008C0.215337 59.6147 0.314929 59.265 0.493231 58.9519C0.671534 58.6388 0.899954 58.3688 1.17849 58.1418C1.45703 57.9148 1.7647 57.7459 2.10151 57.635C2.43832 57.5241 2.77969 57.478 3.12563 57.4967C3.60029 57.5224 4.04896 57.6556 4.47165 57.8963C4.88673 58.1285 5.21635 58.4489 5.46052 58.8575C5.70513 59.258 5.81351 59.7157 5.78567 60.2306L5.66038 62.5475L8.64108 62.7087L8.56799 64.0603ZM4.46569 62.4829L4.58641 60.2504C4.60033 59.993 4.54413 59.764 4.4178 59.5636C4.28343 59.3626 4.0984 59.2034 3.8627 59.0857C3.62744 58.9601 3.35695 58.889 3.05124 58.8724C2.73748 58.8555 2.45645 58.9048 2.20814 59.0205C1.95982 59.1361 1.76565 59.2951 1.62562 59.4973C1.47798 59.691 1.39763 59.9086 1.38458 60.1499L1.26778 62.31L4.46569 62.4829Z" fill="#FCBCAE"/>
<path d="M1.61234 48.413L1.9521 47.1779L11.11 46.2375L10.7318 47.6125L8.24244 47.8678L7.36421 51.0606L9.37594 52.5415L8.99452 53.9281L1.61234 48.413ZM7.20477 47.8582L3.21547 48.1897L6.46116 50.5615L7.20477 47.8582Z" fill="#FCBCAE"/>
<path d="M8.32115 40.2815C7.85891 40.0354 7.45089 39.7131 7.09708 39.3148C6.73616 38.9126 6.45767 38.4585 6.26162 37.9525C6.06224 37.4356 5.97705 36.8927 6.00607 36.324C6.02798 35.7515 6.19231 35.1772 6.49904 34.6012C6.86259 33.9185 7.33335 33.4116 7.91133 33.0804C8.4822 32.7454 9.0738 32.5858 9.68613 32.6015L9.81562 33.8754C9.43409 33.8548 9.09574 33.9074 8.80056 34.0331C8.50917 34.1518 8.25975 34.3202 8.05231 34.5383C7.84866 34.7494 7.68245 34.9758 7.5537 35.2176C7.34163 35.6158 7.23785 36.0078 7.24237 36.3936C7.23977 36.7756 7.31512 37.1398 7.46842 37.4861C7.62551 37.8253 7.83921 38.1354 8.10953 38.4162C8.38364 38.69 8.68425 38.914 9.01138 39.0882C9.37406 39.2813 9.75826 39.4083 10.164 39.4692C10.5626 39.5263 10.9503 39.5182 11.327 39.445C11.7004 39.3609 12.0413 39.2092 12.3497 38.9901C12.6581 38.7709 12.9069 38.4836 13.0963 38.128C13.225 37.8862 13.3168 37.611 13.3716 37.3025C13.4264 36.9939 13.4236 36.6821 13.3632 36.3669C13.2994 36.0409 13.1523 35.7344 12.9218 35.4473L14.0154 34.7563C14.309 35.1135 14.4984 35.5292 14.5835 36.0036C14.6725 36.4708 14.6747 36.9467 14.5901 37.4311C14.5094 37.9084 14.363 38.3461 14.1509 38.7444C13.8669 39.2777 13.4973 39.7062 13.042 40.0297C12.5797 40.3494 12.0784 40.5708 11.5382 40.6939C10.9909 40.8132 10.4388 40.8387 9.88188 40.7703C9.31786 40.6982 8.79761 40.5352 8.32115 40.2815Z" fill="#FCBCAE"/>
<path d="M17.993 31.4967L11.5215 25.8625L12.4103 24.8416L17.4417 29.222L15.4179 21.3871L16.2511 20.43L22.7226 26.0643L21.8338 27.0851L16.8845 22.7761L18.858 30.5032L17.993 31.4967Z" fill="#FCBCAE"/>
<path d="M30.6823 16.2453C30.9511 16.6176 31.0842 17.0085 31.0815 17.4178C31.0854 17.8224 30.9759 18.2144 30.753 18.5939C30.5302 18.9734 30.2227 19.3046 29.8308 19.5876L26.5089 21.9854L21.4868 15.0282L25.0732 12.4393C25.3999 12.2035 25.7444 12.0889 26.1069 12.0956C26.4713 12.0909 26.8145 12.181 27.1367 12.3658C27.4607 12.5393 27.7288 12.7731 27.941 13.067C28.1862 13.4067 28.329 13.7905 28.3696 14.2183C28.4119 14.6349 28.3249 15.0306 28.1086 15.4053C28.5919 15.2353 29.0611 15.2245 29.5161 15.373C29.9729 15.5103 30.3617 15.801 30.6823 16.2453ZM29.4069 16.8529C29.2654 16.6569 29.0956 16.5112 28.8975 16.4157C28.7013 16.309 28.4959 16.2585 28.2814 16.2643C28.0688 16.2588 27.8678 16.3244 27.6783 16.4612L25.3854 18.1163L26.9203 20.2427L29.1447 18.637C29.3406 18.4956 29.4807 18.3249 29.565 18.125C29.651 17.9138 29.6799 17.6992 29.6517 17.4811C29.6252 17.2518 29.5436 17.0424 29.4069 16.8529ZM23.2704 15.1864L24.7488 17.2344L26.7674 15.7773C26.9503 15.6453 27.0829 15.4849 27.1653 15.2962C27.243 15.101 27.2701 14.8977 27.2466 14.6861C27.2183 14.468 27.1335 14.261 26.992 14.065C26.8458 13.8625 26.6793 13.7144 26.4925 13.6208C26.3009 13.5206 26.1059 13.4775 25.9074 13.4916C25.7107 13.4945 25.5242 13.5596 25.3478 13.6869L23.2704 15.1864Z" fill="#FCBCAE"/>
<path d="M35.6916 15.2341L32.4676 7.28228L33.7219 6.7737L34.9116 9.70802L36.6924 8.98602C37.2748 8.74989 37.8062 8.65614 38.2867 8.70475C38.7716 8.74288 39.1906 8.90773 39.5435 9.19932C39.9039 9.48788 40.1871 9.88602 40.3929 10.3937C40.5867 10.8716 40.6615 11.3455 40.6173 11.8155C40.5701 12.278 40.3962 12.6963 40.0958 13.0702C39.7953 13.4442 39.3651 13.7446 38.8051 13.9717L35.6916 15.2341ZM36.5237 13.6839L38.2036 13.0028C38.5545 12.8605 38.8147 12.6767 38.9842 12.4515C39.1538 12.2263 39.2416 11.982 39.2479 11.7187C39.2586 11.4448 39.2109 11.1773 39.105 10.9159C39.002 10.6621 38.8566 10.4428 38.6688 10.2582C38.4883 10.0705 38.2589 9.9549 37.9804 9.91132C37.7094 9.86472 37.3835 9.91861 37.0027 10.073L35.3339 10.7496L36.5237 13.6839ZM42.669 12.4051L39.4495 4.46451L40.7151 3.95139L43.9346 11.892L42.669 12.4051Z" fill="#FCBCAE"/>
<path d="M55.9371 9.13356L55.2082 3.06202L53.2536 7.97072L52.4616 8.06579L49.3887 3.76064L50.1175 9.83217L48.7736 9.9935L47.7509 1.47415L49.1908 1.3013L52.6358 6.1704L54.8304 0.624296L56.2703 0.451443L57.293 8.97079L55.9371 9.13356Z" fill="#FCBCAE"/>
<path d="M63.4962 8.50263L64.6497 0L65.991 0.181957L65.0942 6.79245L70.5297 0.797689L71.7871 0.968274L70.6336 9.4709L69.2924 9.28894L70.1745 2.78623L64.8016 8.67971L63.4962 8.50263Z" fill="#FCBCAE"/>
<path d="M88.7751 13.1543C88.5327 13.6094 88.1962 13.9414 87.7656 14.1502C87.342 14.3628 86.8693 14.4534 86.3475 14.422C85.8366 14.3872 85.3358 14.2392 84.8451 13.9779C84.3402 13.7091 83.9381 13.3671 83.6387 12.9522C83.3432 12.5301 83.1673 12.0804 83.1111 11.6032C83.0549 11.126 83.146 10.6634 83.3846 10.2154C83.5437 9.91669 83.7532 9.68599 84.0133 9.52327C84.2772 9.35343 84.5541 9.23619 84.8441 9.17155C85.1341 9.10691 85.4069 9.08328 85.6623 9.10065C85.5196 8.90596 85.4043 8.69395 85.3164 8.46462C85.2395 8.23197 85.2024 7.99313 85.2051 7.74811C85.2149 7.50687 85.2785 7.27603 85.3959 7.05557C85.5701 6.72845 85.7945 6.47831 86.0693 6.30515C86.355 6.12866 86.6641 6.01946 86.9968 5.97754C87.3333 5.92851 87.6665 5.93707 87.9964 6.00321C88.3372 6.06602 88.6498 6.17317 88.9342 6.32464C89.2258 6.47991 89.4892 6.6795 89.7244 6.92342C89.9705 7.16402 90.1691 7.43403 90.32 7.73346C90.478 8.03668 90.5599 8.35416 90.5658 8.68591C90.5826 9.01433 90.5039 9.3421 90.3297 9.66922C90.2123 9.88968 90.0508 10.073 89.8452 10.2191C89.6506 10.3618 89.4281 10.4625 89.1779 10.5209C88.9348 10.5831 88.6946 10.6058 88.4571 10.5889C88.6317 10.8096 88.7712 11.0619 88.8756 11.3457C88.9872 11.6333 89.039 11.9302 89.0311 12.2364C89.0233 12.5426 88.9379 12.8485 88.7751 13.1543ZM87.6308 12.4491C87.7406 12.2429 87.7929 12.0334 87.7875 11.8206C87.7893 11.6116 87.7439 11.414 87.6514 11.2278C87.5626 11.0345 87.4445 10.8621 87.297 10.7105C87.1495 10.5589 86.9833 10.4339 86.7984 10.3355C86.5353 10.1953 86.2616 10.118 85.9772 10.1035C85.6928 10.089 85.4265 10.1434 85.1783 10.2668C84.9338 10.3831 84.7415 10.5728 84.6014 10.8359C84.4953 11.035 84.4414 11.2391 84.4397 11.4481C84.4417 11.65 84.4835 11.8457 84.5652 12.0352C84.6539 12.2285 84.772 12.401 84.9195 12.5525C85.0741 12.7079 85.2439 12.8348 85.4288 12.9332C85.6848 13.0696 85.955 13.145 86.2393 13.1595C86.5346 13.1707 86.8045 13.1181 87.0489 13.0019C87.3043 12.8823 87.4983 12.698 87.6308 12.4491ZM86.5572 7.72876C86.4398 7.94921 86.4034 8.17175 86.4481 8.39636C86.4928 8.62098 86.5939 8.82541 86.7514 9.00967C86.9088 9.19393 87.0836 9.33718 87.2756 9.43943C87.4747 9.54546 87.6911 9.61049 87.9247 9.63451C88.1693 9.6552 88.3972 9.62141 88.6086 9.53312C88.827 9.44862 88.9968 9.29259 89.118 9.06503C89.2278 8.8588 89.262 8.64883 89.2206 8.43511C89.1831 8.21428 89.0855 8.01174 88.9281 7.82748C88.7815 7.6399 88.598 7.48741 88.3776 7.37002C88.1571 7.25262 87.9246 7.18358 87.68 7.16288C87.4426 7.14597 87.2218 7.18355 87.0176 7.27563C86.8242 7.36437 86.6708 7.51542 86.5572 7.72876Z" fill="#FCBCAE"/>
<path d="M101.442 26.271L106.94 21.3419L105.028 19.2092L103.808 20.2381C102.918 20.9712 102.145 21.5395 101.49 21.9431C100.841 22.3413 100.268 22.5896 99.7721 22.6881C99.282 22.7811 98.8389 22.7455 98.4428 22.5813C98.0527 22.4117 97.6774 22.1259 97.3171 21.724L98.1989 20.9334C98.3979 21.1553 98.6237 21.3046 98.8763 21.3811C99.1349 21.4523 99.4502 21.4238 99.8224 21.2958C100.2 21.1738 100.661 20.9279 101.206 20.5583C101.763 20.1893 102.433 19.6752 103.216 19.0162L105.072 17.4657L108.743 21.56L102.354 27.2878L101.442 26.271Z" fill="#FCBCAE"/>
<path d="M109.922 36.1716L108.878 36.7572L105.998 31.6249L113.48 27.4251L116.307 32.4625L115.264 33.0481L113.099 29.191L110.97 30.3859L112.845 33.7266L111.865 34.2768L109.99 30.936L107.703 32.2197L109.922 36.1716Z" fill="#FCBCAE"/>
<path d="M120.278 45.2221L119.429 42.4995L112.38 44.6992L111.973 43.3956L119.022 41.1958L118.169 38.4617L119.311 38.1053L121.42 44.8657L120.278 45.2221Z" fill="#FCBCAE"/>
</svg>
