<svg width="40" height="40" viewBox="0 0 40 40" fill="none" xmlns="http://www.w3.org/2000/svg">
<path fill-rule="evenodd" clip-rule="evenodd" d="M20.0006 0.714355C16.7196 0.714355 13.518 1.01433 10.4499 1.35632C5.6729 1.88878 1.83458 5.72378 1.32257 10.5094C0.996009 13.5617 0.714844 16.7419 0.714844 20.0001C0.714844 23.2582 0.996009 26.4384 1.32257 29.4906C1.83458 34.2764 5.6729 38.1115 10.4499 38.6438C13.518 38.9858 16.7196 39.2858 20.0006 39.2858C23.2815 39.2858 26.4831 38.9858 29.5511 38.6438C34.3283 38.1115 38.1666 34.2764 38.6786 29.4906C39.0051 26.4384 39.2863 23.2582 39.2863 20.0001C39.2863 16.7419 39.0051 13.5617 38.6786 10.5094C38.1666 5.72378 34.3283 1.88878 29.5511 1.35632C26.4831 1.01433 23.2815 0.714355 20.0006 0.714355ZM14.8456 27.6927C14.7554 28.1684 14.6766 28.5841 14.6084 28.9232C14.4141 29.8904 13.4727 30.5166 12.5058 30.3221C11.539 30.1278 10.9127 29.1866 11.107 28.2196C11.1664 27.9239 11.2381 27.5452 11.3222 27.1006C11.7206 24.9952 12.3987 21.4111 13.3852 18.1504C13.981 16.1813 14.7257 14.1994 15.6592 12.675C16.5237 11.2633 17.9228 9.64293 20.0006 9.64293C22.0783 9.64293 23.4774 11.2633 24.3419 12.675C25.2754 14.1994 26.0201 16.1813 26.6159 18.1504C27.6024 21.4111 28.2806 24.9952 28.6788 27.1006C28.7631 27.5452 28.8346 27.9239 28.894 28.2196C29.0886 29.1866 28.4622 30.1278 27.4953 30.3221C26.5284 30.5166 25.587 29.8904 25.3927 28.9232C25.3247 28.5849 25.246 28.1702 25.1561 27.6959L25.1555 27.6927C24.9934 26.8379 24.7946 25.7894 24.5548 24.6429H15.4463C15.2066 25.7894 15.0077 26.8379 14.8456 27.6927ZM16.2752 21.0715H23.7259C23.5615 20.4394 23.3856 19.8063 23.1975 19.1847C22.631 17.3123 21.991 15.6747 21.2962 14.5401C20.5323 13.2927 20.0595 13.2144 20.0006 13.2144C19.9416 13.2144 19.4688 13.2927 18.705 14.5401C18.0102 15.6747 17.3701 17.3123 16.8036 19.1847C16.6155 19.8063 16.4396 20.4394 16.2752 21.0715Z" fill="#FF5E64"/>
</svg>
