<svg width="141" height="16" viewBox="0 0 141 16" fill="none" xmlns="http://www.w3.org/2000/svg">
<path d="M15.6081 2.19971L13.627 13.8257H16.7954L18.7782 2.19971H15.6081Z" fill="#C6C6C6"/>
<path d="M10.9728 2.21241L7.86955 10.141L7.53868 8.94382C6.92666 7.50137 5.18921 5.42979 3.14941 4.12426L5.98704 13.8196L9.3397 13.8139L14.3296 2.20996L10.9728 2.21241Z" fill="#C6C6C6"/>
<path d="M6.33372 3.04413C6.14954 2.33594 5.61576 2.12487 4.95321 2.09961H0.040747L0 2.33105C3.82289 3.25846 6.35246 5.49302 7.40211 8.17988L6.33372 3.04413Z" fill="#C6C6C6"/>
<path d="M25.203 4.42852C26.2396 4.41222 26.991 4.63878 27.5745 4.87348L27.8605 5.00795L28.2892 2.48815C27.6617 2.25263 26.678 2 25.4507 2C22.3197 2 20.1129 3.57691 20.0958 5.83674C20.0754 7.50655 21.6678 8.43885 22.8706 8.99545C24.1053 9.56591 24.5192 9.92856 24.5135 10.4379C24.5038 11.2162 23.5291 11.5731 22.6188 11.5731C21.3499 11.5731 20.676 11.3979 19.6353 10.9643L19.227 10.7785L18.7812 13.3806C19.5228 13.7058 20.8911 13.9853 22.3116 14C25.6422 14 27.8067 12.4418 27.8295 10.0272C27.8434 8.70615 26.9983 7.69806 25.1671 6.8709C24.0588 6.33141 23.3808 5.97283 23.3873 5.42845C23.3873 4.94519 23.9626 4.42852 25.203 4.42852Z" fill="#C6C6C6"/>
<path d="M36.4192 2.21191H33.9711C33.2108 2.21191 32.6452 2.41891 32.3111 3.1768L27.6064 13.8313H30.9338C30.9338 13.8313 31.4766 12.3987 31.5997 12.0849C31.9639 12.0849 35.1968 12.0898 35.6572 12.0898C35.7518 12.4957 36.0435 13.8313 36.0435 13.8313H38.983L36.4192 2.21191ZM32.5116 9.70529C32.7724 9.03786 33.7739 6.45612 33.7739 6.45612C33.7568 6.48791 34.0323 5.7838 34.1961 5.34617L34.4096 6.34855C34.4096 6.34855 35.0167 9.12424 35.1438 9.70529H32.5116Z" fill="#C6C6C6"/>
<path d="M62.9834 16C67.4017 16 70.9834 12.4183 70.9834 8C70.9834 3.58172 67.4017 0 62.9834 0C58.5651 0 54.9834 3.58172 54.9834 8C54.9834 12.4183 58.5651 16 62.9834 16Z" fill="#EE0005"/>
<path d="M72.9229 16C77.3411 16 80.9228 12.4183 80.9228 8C80.9228 3.58172 77.3411 0 72.9229 0C68.5046 0 64.9229 3.58172 64.9229 8C64.9229 12.4183 68.5046 16 72.9229 16Z" fill="#F9A000"/>
<path d="M64.9229 7.99995C64.9229 10.5401 66.107 12.8035 67.9531 14.2689C69.7992 12.8035 70.9834 10.5401 70.9834 7.99995C70.9834 5.45978 69.7992 3.19637 67.9531 1.73096C66.107 3.19649 64.9229 5.45984 64.9229 7.99995Z" fill="#FF6300"/>
<path d="M97 2.00195H101.124C101.499 2.00195 102.624 1.87697 103.124 3.62669C103.499 4.75151 103.999 6.50122 104.749 9.12579H104.999C105.749 6.37624 106.373 4.50155 106.623 3.62669C107.123 1.87697 108.373 2.00195 108.873 2.00195H112.747V14H108.748V6.87616H108.498L106.373 14H103.374L101.249 6.87616H100.874V14H97M114.372 2.00195H118.372V9.12579H118.746L121.371 3.25175C121.871 2.12693 122.996 2.00195 122.996 2.00195H126.745V14H122.746V6.87616H122.496L119.871 12.7502C119.371 13.875 118.122 14 118.122 14H114.372M132.119 10.3756V14H128.37V7.75102H140.618C140.118 9.25077 138.368 10.3756 136.369 10.3756" fill="#2AB37F"/>
<path d="M140.868 7.00126C141.368 4.75163 139.868 2.00208 136.619 2.00208H128.12C128.37 4.62665 130.62 7.00126 132.994 7.00126" fill="url(#paint0_linear_13_3165)"/>
<defs>
<linearGradient id="paint0_linear_13_3165" x1="139.368" y1="0.37734" x2="129.37" y2="0.37734" gradientUnits="userSpaceOnUse">
<stop stop-color="#1F5CD7"/>
<stop offset="1" stop-color="#02AEFF"/>
</linearGradient>
</defs>
</svg>
