<svg width="115" height="44" viewBox="0 0 115 44" fill="none" xmlns="http://www.w3.org/2000/svg">
<path d="M18.4761 26.3794V0H21.4428V26.3794H18.4761ZM0.114792 26.3794V0H3.08147V26.3794H0.114792ZM1.11705 2.36533V0H20.4807V2.36533H1.11705Z" fill="#CAC6BF"/>
<path d="M29.4609 26.3794V7.69734H35.274C36.931 7.69734 38.3476 7.92451 39.5235 8.37887C40.7262 8.83323 41.635 9.5014 42.2497 10.3834C42.8644 11.2654 43.1717 12.3478 43.1717 13.6307C43.1717 14.9938 42.8243 16.1965 42.1294 17.2388C41.4612 18.2544 40.4857 19.0429 39.2028 19.6042C37.9199 20.1387 36.3831 20.406 34.5924 20.406H30.8239V18.1609H35.0334C36.7707 18.1609 38.1204 17.8135 39.0825 17.1186C40.0714 16.3969 40.5659 15.3679 40.5659 14.0316C40.5659 12.6953 40.0581 11.6529 39.0424 10.9046C38.0268 10.1562 36.6237 9.78203 34.833 9.78203H32.1068V26.3794H29.4609Z" fill="#CAC6BF"/>
<path d="M56.6236 26.6199C54.7794 26.6199 53.1224 26.2057 51.6524 25.3772C50.1824 24.5486 49.0332 23.4261 48.2046 22.0096C47.3761 20.593 46.9618 19.0028 46.9618 17.2388C46.9618 15.3947 47.3895 13.7376 48.2447 12.2676C49.1 10.7977 50.2893 9.63503 51.8128 8.77977C53.3362 7.89779 55.0601 7.45679 56.9844 7.45679C58.8553 7.45679 60.5257 7.87106 61.9957 8.69959C63.4657 9.52813 64.6149 10.664 65.4435 12.1073C66.2987 13.5238 66.7263 15.1408 66.7263 16.9582C66.7263 18.8291 66.272 20.4995 65.3633 21.9695C64.4813 23.4127 63.2786 24.5486 61.7552 25.3772C60.2317 26.2057 58.5212 26.6199 56.6236 26.6199ZM56.9042 24.5353C58.2406 24.5353 59.4166 24.2279 60.4322 23.6132C61.4745 22.9985 62.2897 22.1432 62.8777 21.0474C63.4657 19.9516 63.7597 18.6687 63.7597 17.1987C63.7597 15.702 63.4523 14.379 62.8376 13.2298C62.2496 12.0538 61.4211 11.1451 60.352 10.5037C59.3097 9.86221 58.1069 9.54149 56.7439 9.54149C55.4343 9.54149 54.2583 9.84885 53.2159 10.4636C52.2003 11.0783 51.3851 11.9469 50.7704 13.0694C50.1824 14.192 49.8884 15.4882 49.8884 16.9582C49.8884 18.4549 50.1824 19.7779 50.7704 20.9271C51.3851 22.0497 52.2137 22.9316 53.256 23.5731C54.3251 24.2145 55.5412 24.5353 56.9042 24.5353Z" fill="#CAC6BF"/>
<path d="M80.6286 24.856C78.5974 24.856 76.8334 24.5353 75.3367 23.8938C73.8667 23.2524 72.7308 22.3704 71.929 21.2479C71.1272 20.0986 70.7263 18.7489 70.7263 17.1987C70.7263 15.5417 71.1673 14.1251 72.0493 12.9492C72.9313 11.7465 74.1607 10.8244 75.7376 10.1829C77.3145 9.51476 79.1319 9.18068 81.1899 9.18068C83.2478 9.18068 85.0118 9.5014 86.4818 10.1428C87.9785 10.7576 89.1277 11.6395 89.9295 12.7888C90.7313 13.9381 91.1323 15.2878 91.1323 16.8379C91.1323 18.4415 90.6913 19.8581 89.8093 21.0875C88.9273 22.2902 87.6978 23.2256 86.121 23.8938C84.5441 24.5353 82.7133 24.856 80.6286 24.856ZM81.1899 23.092C82.7667 23.092 84.0897 22.8515 85.1588 22.3704C86.2546 21.8893 87.0831 21.2211 87.6444 20.3659C88.2324 19.4839 88.5264 18.4415 88.5264 17.2388C88.5264 15.9292 88.2057 14.8067 87.5642 13.8712C86.9228 12.9358 86.0141 12.2275 84.8381 11.7465C83.6888 11.2386 82.299 10.9847 80.6687 10.9847C79.1185 10.9847 77.7955 11.2253 76.6997 11.7064C75.6039 12.1874 74.762 12.869 74.1741 13.751C73.6128 14.6062 73.3322 15.6486 73.3322 16.878C73.3322 18.1609 73.6395 19.2701 74.2542 20.2055C74.8957 21.1142 75.8044 21.8225 76.9804 22.3303C78.1831 22.8381 79.5863 23.092 81.1899 23.092ZM79.7867 26.7803V7.29643H82.1921V26.7803H79.7867Z" fill="#CAC6BF"/>
<path d="M98.2423 26.3794V25.0163L111.111 7.69734H112.755V9.1005L99.886 26.3794H98.2423ZM96.8392 26.3794V7.69734H99.445L99.3248 26.3794H96.8392ZM111.432 26.3794L111.552 7.69734H114.038V26.3794H111.432Z" fill="#CAC6BF"/>
<path d="M5.65114 43.9998C4.53598 43.9998 3.54891 43.7663 2.68994 43.2991C1.84604 42.8319 1.18297 42.1915 0.700741 41.3777C0.23358 40.564 0 39.6673 0 38.6878C0 37.648 0.24865 36.7136 0.74595 35.8848C1.24325 35.0409 1.92139 34.3778 2.78036 33.8956C3.63933 33.3983 4.61133 33.1497 5.69635 33.1497C6.40462 33.1497 7.07522 33.2627 7.70815 33.4887C8.34108 33.6997 8.90619 34.0086 9.40349 34.4155L8.22806 35.6588C7.88145 35.282 7.47457 34.9957 7.00741 34.7998C6.54025 34.6039 6.05048 34.5059 5.53811 34.5059C4.84491 34.5059 4.22705 34.6717 3.68454 35.0032C3.14203 35.3348 2.71255 35.8019 2.39608 36.4047C2.07962 37.0075 1.92139 37.7158 1.92139 38.5295C1.92139 39.3282 2.07962 40.0365 2.39608 40.6544C2.71255 41.2722 3.16464 41.7545 3.75236 42.1011C4.35514 42.4477 5.06342 42.621 5.87718 42.621C6.41969 42.621 6.91699 42.5381 7.36908 42.3723C7.82118 42.2065 8.20545 41.9654 8.52192 41.649L9.40349 42.8244C8.90619 43.2011 8.34108 43.495 7.70815 43.706C7.07522 43.9019 6.38955 43.9998 5.65114 43.9998Z" fill="#CAC6BF"/>
<path d="M19.4194 43.8642V33.2853H21.2278V43.8642H19.4194ZM15.3958 34.732V33.2853H25.2514V34.732H15.3958Z" fill="#CAC6BF"/>
<path d="M32.5611 43.8642V33.2853H35.9744C36.9238 33.2853 37.7376 33.4209 38.4157 33.6922C39.0939 33.9484 39.6062 34.3251 39.9528 34.8224C40.3145 35.3197 40.4953 35.9451 40.4953 36.6986C40.4953 37.4822 40.2919 38.1679 39.885 38.7556C39.4932 39.3433 38.9206 39.8029 38.1671 40.1345C37.4287 40.4509 36.5396 40.6092 35.4997 40.6092H33.4201V39.1625H35.7936C36.743 39.1625 37.4739 38.9741 37.9862 38.5974C38.5137 38.2206 38.7774 37.6706 38.7774 36.9472C38.7774 36.2389 38.4986 35.6814 37.941 35.2745C37.3985 34.8676 36.645 34.6642 35.6806 34.6642H34.2791V43.8642H32.5611Z" fill="#CAC6BF"/>
<path d="M49.1172 43.8642V42.9826L56.1698 33.2853H57.2096V34.2121L50.1796 43.8642H49.1172ZM48.213 43.8642V33.2853H49.9084L49.818 43.8642H48.213ZM56.3733 43.8642L56.4411 33.2853H58.046V43.8642H56.3733Z" fill="#CAC6BF"/>
<path d="M78.2834 43.8642L73.4461 38.5295L78.1478 33.2853H80.3631L74.8475 39.0042V37.8288L80.5213 43.8642H78.2834ZM64.992 43.8642L70.6883 37.8288V39.0042L65.1502 33.2853H67.3654L72.0898 38.5295L67.2524 43.8642H64.992ZM71.9316 43.8642V33.2853H73.5817V43.8642H71.9316Z" fill="#CAC6BF"/>
<path d="M94.6972 43.8642L89.1139 38.5295L94.5842 33.2853H96.9802L90.3797 39.0042L90.5153 37.8288L97.1385 43.8642H94.6972ZM87.4637 43.8642V33.2853H89.2721V43.8642H87.4637Z" fill="#CAC6BF"/>
<path d="M102.663 43.8642L107.071 33.2853H109.151L113.581 43.8642H111.728L107.817 34.0538H108.314L104.54 43.8642H102.663ZM104.924 40.3605L105.353 39.0494H110.507L111.14 40.3605H104.924Z" fill="#CAC6BF"/>
</svg>
