<svg width="36" height="36" viewBox="0 0 36 36" fill="none" xmlns="http://www.w3.org/2000/svg">
<rect width="36" height="36" rx="10" fill="#CAC6BF"/>
<path d="M28.3059 13.4847C28.08 14.2067 27.7495 14.8916 27.3249 15.5178L27.342 15.4908C26.9388 16.1628 26.4573 16.9392 25.8975 17.82C25.4175 18.5154 25.1634 18.8754 25.1352 18.9C25.007 19.0606 24.924 19.2527 24.8949 19.4562L24.894 19.4625C24.917 19.6459 25.0021 19.8158 25.1352 19.944L25.4952 20.3454C27.4212 22.3248 28.5045 23.6892 28.7451 24.4386C28.7908 24.5617 28.8054 24.6941 28.7879 24.8242C28.7703 24.9543 28.721 25.0781 28.6444 25.1847L28.6461 25.182C28.5555 25.2754 28.4451 25.3473 28.323 25.3924C28.2008 25.4374 28.0701 25.4544 27.9405 25.4421H27.9441H25.5717C25.2684 25.4421 24.9894 25.3359 24.7707 25.1595L24.7734 25.1613C24.4612 24.9053 24.1745 24.6195 23.9175 24.3081L23.9094 24.2973C23.4948 23.8287 23.127 23.4342 22.806 23.1138C21.7368 22.0974 20.9478 21.5892 20.439 21.5892C20.2748 21.5745 20.1106 21.6174 19.9746 21.7107L19.9773 21.7089C19.9189 21.7821 19.876 21.8665 19.8513 21.9569C19.8265 22.0472 19.8204 22.1417 19.8333 22.2345V22.2309C19.7984 22.6508 19.7869 23.0724 19.7991 23.4936V23.4783V24.5214C19.8247 24.646 19.8159 24.7752 19.7738 24.8952C19.7316 25.0152 19.6576 25.1215 19.5597 25.2027L19.5588 25.2036C19.1031 25.4095 18.6013 25.4924 18.1035 25.4439L18.1152 25.4448C16.7528 25.4214 15.4226 25.0269 14.2677 24.3036L14.2992 24.3216C12.9676 23.5188 11.8262 22.4363 10.9539 21.1491L10.9296 21.1113C10.083 19.9822 9.3387 18.7799 8.70574 17.5185L8.64274 17.3799C8.22097 16.5631 7.85035 15.7209 7.53304 14.8581L7.47904 14.6916C7.33192 14.2437 7.23827 13.78 7.20004 13.3101L7.19824 13.2876C7.19824 12.8328 7.46584 12.6054 8.00104 12.6054H10.368C10.6073 12.5867 10.8449 12.659 11.0331 12.8079L11.0313 12.8061C11.2113 13.0032 11.3445 13.2453 11.4102 13.5153L11.4129 13.5261C11.804 14.646 12.2815 15.7338 12.8412 16.7796L12.7809 16.6563C13.1855 17.478 13.6751 18.2551 14.2416 18.9747L14.2209 18.9468C14.7009 19.536 15.0753 19.8306 15.3441 19.8306L15.3729 19.8315C15.4362 19.8316 15.4984 19.815 15.5532 19.7834C15.6081 19.7518 15.6536 19.7063 15.6852 19.6515L15.6861 19.6497C15.7723 19.4241 15.8065 19.182 15.786 18.9414V18.9468V15.4557C15.7692 15.0599 15.6712 14.6717 15.498 14.3154L15.5052 14.3325C15.4003 14.106 15.2639 13.8955 15.1002 13.707L15.1029 13.7106C14.952 13.5599 14.8538 13.3645 14.823 13.1535L14.8221 13.1481C14.8221 12.9951 14.8923 12.8574 15.0021 12.7674L15.003 12.7665C15.116 12.663 15.2638 12.6058 15.417 12.6063H19.1556C19.2495 12.5953 19.3446 12.6079 19.4324 12.6427C19.5202 12.6776 19.598 12.7337 19.6587 12.8061L19.6596 12.807C19.7733 13.017 19.8231 13.2557 19.8027 13.4937V13.4892V18.1449C19.7884 18.3285 19.8312 18.5121 19.9251 18.6705L19.9233 18.6669C19.9563 18.7162 20.0009 18.7565 20.0532 18.7845C20.1054 18.8124 20.1638 18.8271 20.223 18.8271C20.3748 18.8172 20.5221 18.7669 20.6478 18.6813L20.6451 18.6831C20.8899 18.5148 21.1005 18.3231 21.2832 18.1062L21.2868 18.1017C21.8429 17.4726 22.3414 16.7949 22.7763 16.0767L22.8114 16.0137C23.121 15.5007 23.4558 14.8689 23.7591 14.22L23.8149 14.0877L24.2163 13.2849C24.287 13.0773 24.4233 12.8984 24.6047 12.7752C24.7861 12.6519 25.0026 12.5911 25.2216 12.6018H25.2189H27.5868C28.2264 12.6018 28.4664 12.8961 28.3068 13.4847H28.3059Z" fill="#494949"/>
</svg>
