<svg width="40" height="40" viewBox="0 0 40 40" fill="none" xmlns="http://www.w3.org/2000/svg">
<g clip-path="url(#clip0_70_2695)">
<path d="M31.3334 10.6666C28.1934 6.47996 24.2 4.16663 20 4.16663C15.8 4.16663 11.8067 6.47996 8.66669 10.6666C6.30502 13.815 3.45669 18.0666 3.06336 22.54C2.86169 24.8466 3.30836 27.2083 4.76169 29.4566C6.19669 31.6766 8.54169 33.675 11.9534 35.4233C14.0517 36.4983 16.3367 35.0566 16.635 32.9516C15.9617 32.5016 15.3017 31.94 14.6984 31.2833C13.01 29.4416 11.665 26.745 11.665 23.3333C11.665 17.62 14.615 13.775 18.165 12.76C18.635 12.6266 19.165 12.98 19.2217 13.4666C19.4569 15.4816 20.4191 17.3416 21.9278 18.6978C23.4365 20.054 25.3881 20.8133 27.4167 20.8333C28.54 20.8433 28.3334 22.6 28.3334 23.3333C28.3334 26.745 26.99 29.4416 25.3 31.2833C24.6967 31.9433 24.0334 32.5066 23.36 32.955C23.6267 35.0683 25.89 36.5216 27.99 35.5066C31.5984 33.7666 34.0617 31.7683 35.5534 29.5316C37.065 27.2616 37.4917 24.87 37.2317 22.5416C36.7317 18.0583 33.67 13.78 31.3334 10.6666Z" fill="#FF7A76"/>
</g>
<defs>
<clipPath id="clip0_70_2695">
<rect width="40" height="40" fill="white"/>
</clipPath>
</defs>
</svg>
