<svg width="52" height="21" viewBox="0 0 52 21" fill="none" xmlns="http://www.w3.org/2000/svg">
<path d="M8.42527 12.0287V0H9.77804V12.0287H8.42527ZM0.0527344 12.0287V0H1.4055V12.0287H0.0527344ZM0.50975 1.07856V0H9.3393V1.07856H0.50975Z" fill="#CAC6BF"/>
<path d="M13.4342 12.0287V3.50988H16.0849C16.8405 3.50988 17.4864 3.61348 18.0226 3.82066C18.571 4.02784 18.9854 4.33251 19.2657 4.73469C19.546 5.13686 19.6861 5.63044 19.6861 6.21542C19.6861 6.83696 19.5277 7.38538 19.2108 7.86068C18.9062 8.32379 18.4613 8.68331 17.8764 8.93924C17.2914 9.18298 16.5906 9.30485 15.7741 9.30485H14.0557V8.28113H15.9752C16.7673 8.28113 17.3828 8.1227 17.8215 7.80584C18.2724 7.47679 18.4979 7.00758 18.4979 6.39823C18.4979 5.78887 18.2664 5.31358 17.8032 4.97234C17.3401 4.6311 16.7003 4.46048 15.8838 4.46048H14.6407V12.0287H13.4342Z" fill="#CAC6BF"/>
<path d="M25.82 12.1384C24.9791 12.1384 24.2235 11.9495 23.5532 11.5717C22.8829 11.1939 22.3589 10.682 21.9811 10.0361C21.6033 9.39016 21.4144 8.66503 21.4144 7.86068C21.4144 7.01977 21.6094 6.26417 21.9994 5.59388C22.3894 4.92359 22.9317 4.39345 23.6263 4.00346C24.321 3.60129 25.1071 3.4002 25.9845 3.4002C26.8376 3.4002 27.5993 3.5891 28.2696 3.9669C28.9399 4.3447 29.464 4.86265 29.8418 5.52076C30.2317 6.16667 30.4267 6.90399 30.4267 7.73271C30.4267 8.58581 30.2196 9.34751 29.8052 10.0178C29.403 10.6759 28.8546 11.1939 28.1599 11.5717C27.4653 11.9495 26.6853 12.1384 25.82 12.1384ZM25.948 11.1878C26.5573 11.1878 27.0936 11.0476 27.5567 10.7673C28.032 10.487 28.4037 10.097 28.6718 9.59734C28.9399 9.09767 29.074 8.51269 29.074 7.8424C29.074 7.15992 28.9338 6.55666 28.6535 6.03261C28.3854 5.49638 28.0076 5.08202 27.5201 4.78953C27.0448 4.49704 26.4964 4.35079 25.8749 4.35079C25.2777 4.35079 24.7415 4.49095 24.2662 4.77125C23.8031 5.05155 23.4313 5.44763 23.151 5.95949C22.8829 6.47135 22.7489 7.06242 22.7489 7.73271C22.7489 8.41519 22.8829 9.01845 23.151 9.5425C23.4313 10.0544 23.8091 10.4565 24.2844 10.749C24.7719 11.0415 25.3264 11.1878 25.948 11.1878Z" fill="#CAC6BF"/>
<path d="M36.766 11.334C35.8398 11.334 35.0354 11.1878 34.3529 10.8953C33.6826 10.6028 33.1647 10.2006 32.7991 9.68874C32.4335 9.1647 32.2507 8.54925 32.2507 7.8424C32.2507 7.0868 32.4518 6.44088 32.8539 5.90465C33.2561 5.35623 33.8167 4.93578 34.5357 4.64328C35.2548 4.33861 36.0835 4.18627 37.0219 4.18627C37.9603 4.18627 38.7647 4.33251 39.435 4.625C40.1174 4.90531 40.6415 5.30748 41.0071 5.83153C41.3727 6.35557 41.5555 6.97102 41.5555 7.67787C41.5555 8.4091 41.3544 9.05501 40.9523 9.61562C40.5501 10.164 39.9895 10.5906 39.2704 10.8953C38.5514 11.1878 37.7166 11.334 36.766 11.334ZM37.0219 10.5297C37.741 10.5297 38.3442 10.42 38.8317 10.2006C39.3314 9.98123 39.7092 9.67656 39.9651 9.28657C40.2332 8.88439 40.3673 8.4091 40.3673 7.86068C40.3673 7.26351 40.221 6.75165 39.9285 6.32511C39.636 5.89856 39.2217 5.5756 38.6855 5.35623C38.1614 5.12468 37.5277 5.0089 36.7843 5.0089C36.0774 5.0089 35.4741 5.11858 34.9745 5.33795C34.4748 5.55732 34.0909 5.86809 33.8228 6.27026C33.5669 6.66025 33.4389 7.13555 33.4389 7.69615C33.4389 8.28113 33.5791 8.7869 33.8594 9.21345C34.1519 9.62781 34.5662 9.95077 35.1024 10.1823C35.6509 10.4139 36.2907 10.5297 37.0219 10.5297ZM36.3821 12.2115V3.32708H37.4789V12.2115H36.3821Z" fill="#CAC6BF"/>
<path d="M44.7976 12.0287V11.4071L50.6657 3.50988H51.4152V4.14971L45.5471 12.0287H44.7976ZM44.1578 12.0287V3.50988H45.346L45.2912 12.0287H44.1578ZM50.8119 12.0287L50.8668 3.50988H52.0002V12.0287H50.8119Z" fill="#CAC6BF"/>
<path d="M2.57685 20.0633C2.06835 20.0633 1.61826 19.9568 1.22658 19.7437C0.841769 19.5307 0.53942 19.2387 0.319529 18.8676C0.10651 18.4965 0 18.0877 0 17.641C0 17.1669 0.113381 16.7409 0.340144 16.3629C0.566906 15.9781 0.876127 15.6758 1.26781 15.4559C1.65949 15.2291 2.10271 15.1157 2.59746 15.1157C2.92042 15.1157 3.22621 15.1673 3.51482 15.2703C3.80342 15.3665 4.06111 15.5074 4.28787 15.6929L3.75189 16.2598C3.59384 16.0881 3.40831 15.9575 3.19529 15.8682C2.98227 15.7788 2.75894 15.7342 2.52531 15.7342C2.20922 15.7342 1.92748 15.8098 1.6801 15.9609C1.43273 16.1121 1.23689 16.3251 1.09258 16.6C0.948279 16.8748 0.876127 17.1978 0.876127 17.5689C0.876127 17.9331 0.948279 18.256 1.09258 18.5378C1.23689 18.8195 1.44303 19.0394 1.71103 19.1974C1.98589 19.3555 2.30885 19.4345 2.67992 19.4345C2.9273 19.4345 3.15406 19.3967 3.36021 19.3211C3.56635 19.2455 3.74158 19.1356 3.88588 18.9913L4.28787 19.5273C4.06111 19.6991 3.80342 19.8331 3.51482 19.9293C3.22621 20.0186 2.91355 20.0633 2.57685 20.0633Z" fill="#CAC6BF"/>
<path d="M8.85501 20.0014V15.1776H9.6796V20.0014H8.85501ZM7.02029 15.8372V15.1776H11.5143V15.8372H7.02029Z" fill="#CAC6BF"/>
<path d="M14.8475 20.0014V15.1776H16.4039C16.8368 15.1776 17.2078 15.2394 17.5171 15.3631C17.8263 15.4799 18.0599 15.6517 18.218 15.8785C18.3829 16.1052 18.4653 16.3904 18.4653 16.734C18.4653 17.0913 18.3726 17.404 18.187 17.672C18.0084 17.9399 17.7473 18.1495 17.4037 18.3007C17.067 18.445 16.6616 18.5172 16.1874 18.5172H15.2391V17.8575H16.3214C16.7543 17.8575 17.0876 17.7716 17.3212 17.5998C17.5617 17.428 17.682 17.1772 17.682 16.8474C17.682 16.5244 17.5549 16.2701 17.3006 16.0846C17.0532 15.8991 16.7097 15.8063 16.2699 15.8063H15.6308V20.0014H14.8475Z" fill="#CAC6BF"/>
<path d="M22.3968 20.0014V19.5994L25.6127 15.1776H26.0869V15.6002L22.8813 20.0014H22.3968ZM21.9845 20.0014V15.1776H22.7576L22.7163 20.0014H21.9845ZM25.7055 20.0014L25.7364 15.1776H26.4682V20.0014H25.7055Z" fill="#CAC6BF"/>
<path d="M35.6962 20.0014L33.4904 17.5689L35.6344 15.1776H36.6445L34.1295 17.7853V17.2494L36.7167 20.0014H35.6962ZM29.6355 20.0014L32.2329 17.2494V17.7853L29.7076 15.1776H30.7178L32.872 17.5689L30.6662 20.0014H29.6355ZM32.7999 20.0014V15.1776H33.5523V20.0014H32.7999Z" fill="#CAC6BF"/>
<path d="M43.1807 20.0014L40.6348 17.5689L43.1291 15.1776H44.2217L41.212 17.7853L41.2738 17.2494L44.2939 20.0014H43.1807ZM39.8823 20.0014V15.1776H40.7069V20.0014H39.8823Z" fill="#CAC6BF"/>
<path d="M46.8131 20.0014L48.8231 15.1776H49.7714L51.7916 20.0014H50.9464L49.1632 15.528H49.39L47.6687 20.0014H46.8131ZM47.8439 18.4038L48.0397 17.8059H50.3898L50.6784 18.4038H47.8439Z" fill="#CAC6BF"/>
</svg>
