<svg width="128" height="38" viewBox="0 0 128 38" fill="none" xmlns="http://www.w3.org/2000/svg">
<g clip-path="url(#clip0_70_2687)">
<path d="M122.036 32.2454C124.547 32.2454 126.326 31.7912 127.651 30.813V26.3763C126.291 27.3195 124.652 27.9134 122.35 27.9134C118.478 27.9134 116.874 24.909 116.874 20.1578C116.874 15.162 118.827 12.6117 122.385 12.6117C124.477 12.6117 126.535 13.3454 127.616 14.0441V9.43261C126.465 8.80377 124.477 8.34961 121.757 8.34961C114.816 8.34961 111.224 13.3454 111.224 20.3324C111.259 27.9833 114.781 32.2454 122.036 32.2454ZM88.1001 30.2191V25.7824C86.426 26.9352 83.5661 27.9483 80.9503 27.9483C76.9743 27.9483 75.4745 26.0618 75.2304 22.2189H88.3443V19.3542C88.3443 11.3541 84.8217 8.34961 79.4157 8.34961C72.789 8.34961 69.65 13.4152 69.65 20.3674C69.65 28.3676 73.5912 32.2454 80.4969 32.2454C83.9497 32.2454 86.4958 31.3021 88.1001 30.2191ZM38.3301 8.76883V17.852H31.0756V8.76883H25.6348V31.7912H31.0756V22.184H38.3301V31.7912H43.771V8.76883H38.3301ZM68.2898 27.4593H65.8833V8.76883H50.0489V10.7252C50.0489 16.3498 49.7002 23.6164 47.7819 27.4593H46.038V37.0315H51.0604V31.7912H63.2326V37.0315H68.2549V27.4593H68.2898ZM105.434 31.7912H111.607L102.888 19.3892L110.561 8.76883H105.085L97.4124 19.3892V8.76883H91.9715V31.7912H97.4124V20.4722L105.434 31.7912ZM79.2762 12.6117C81.9617 12.6117 82.7988 14.8476 82.7988 17.7472V18.2014H75.2304C75.3699 14.5332 76.6952 12.6117 79.2762 12.6117ZM60.4424 27.4593H52.7694C54.2691 24.0007 54.6876 17.7123 54.6876 13.7297V13.0309H60.4424V27.4593Z" fill="black"/>
<path d="M21.1008 31.7912H15.5553V4.29705H13.079C8.54496 4.29705 6.1733 6.56784 6.1733 9.95657C6.1733 13.7995 7.81253 15.5812 11.1956 17.852L13.9858 19.7385L5.96403 31.7912H0L7.21962 21.0311C3.06921 18.0616 0.732425 15.1619 0.732425 10.271C0.732425 4.15731 4.98747 0 13.0441 0H21.0659V31.7912H21.1008Z" fill="#FC3F1D"/>
</g>
<defs>
<clipPath id="clip0_70_2687">
<rect width="128" height="37.0315" fill="white"/>
</clipPath>
</defs>
</svg>
